<svg width="40" height="40" viewBox="0 0 40 40" fill="none" xmlns="http://www.w3.org/2000/svg">
<circle cx="20" cy="20" r="20" fill="url(#paint0_linear_37_43)"/>
<g clip-path="url(#clip0_37_43)">
<path d="M19.207 17.793C19.3863 17.973 19.4905 18.2145 19.4982 18.4684C19.506 18.7224 19.4982 19.207 19.5 19.4999C19.5 19.4999 18.8464 19.4703 18.5935 19.4944C18.3406 19.5185 18.088 19.4454 17.887 19.29L17.793 19.207L13 14.414L13 17C12.9997 17.2549 13 17.7658 13 17.9972C12.5 17.9999 12.313 17.9823 12.0586 17.9972C11.8042 18.0121 11 17.9999 11 17.9999C11 17.9999 11 17.4999 11.007 17.117L11 17L11 12C11 11.7551 11 10.9999 11 10.9999C11 10.9999 11.5 10.9999 11.883 11.007L12 11L17 11C17.2549 11.0003 17.7657 10.9998 17.9972 11.0002C18 10.9999 17.9822 11.687 17.9972 11.9414C18.0121 12.1959 18 12.9999 17.9972 12.993C18 12.9999 17.5 12.9999 17.117 12.993L17 13L14.414 13L19.207 17.793ZM29 28C29 28.245 29 29 29 29C29 29 28.5 29 28.117 28.993L28 29L23 29C22.7451 28.9997 22.5 28.9021 22.3146 28.7272C22.1293 28.5522 22.0178 28.3131 22.0028 28.0586C21.9879 27.8042 22.0707 27.5536 22.2343 27.3582C22.3978 27.1627 22.6299 27.0371 22.883 27.007L23 27L25.586 27L20.793 22.207C20.6136 22.0271 20.5095 21.7856 20.5018 21.5316C20.494 21.2777 20.5018 20.7084 20.5018 20.5056C20.793 20.5056 21 20.4999 21.4065 20.5056C21.5 20.4999 21.912 20.5546 22.113 20.71L22.207 20.793L27 25.586L27 23C27.0003 22.7451 27.0979 22.5 27.2728 22.3147C27.4478 22.1293 27.6869 22.0178 27.9414 22.0029C28.1958 21.9879 28.4464 22.0707 28.6418 22.2343C28.8373 22.3979 28.9629 22.6299 28.993 22.883L29 23L29 28Z" fill="white"/>
</g>
<defs>
<linearGradient id="paint0_linear_37_43" x1="0" y1="0" x2="40" y2="40" gradientUnits="userSpaceOnUse">
<stop stop-color="#5BBEFF"/>
<stop offset="0.515625" stop-color="#5BBEFF"/>
<stop offset="0.515725" stop-color="#49A5E6"/>
<stop offset="1" stop-color="#49A5E6"/>
</linearGradient>
<clipPath id="clip0_37_43">
<rect width="24" height="24" fill="white" transform="translate(32 8) rotate(90)"/>
</clipPath>
</defs>
</svg>
