<svg width="32" height="32" viewBox="0 0 32 32" fill="none" xmlns="http://www.w3.org/2000/svg">
<path d="M24 24L24 25.5L25.5 25.5L25.5 24L24 24ZM9.06066 6.93934L8 5.87868L5.87868 8L6.93934 9.06066L9.06066 6.93934ZM25.5 10.6667L25.5 9.16667L22.5 9.16667L22.5 10.6667L25.5 10.6667ZM10.6667 22.5L9.16667 22.5L9.16667 25.5L10.6667 25.5L10.6667 22.5ZM25.0607 22.9393L9.06066 6.93934L6.93934 9.06066L22.9393 25.0607L25.0607 22.9393ZM22.5 10.6667L22.5 24L25.5 24L25.5 10.6667L22.5 10.6667ZM24 22.5L10.6667 22.5L10.6667 25.5L24 25.5L24 22.5Z" fill="#BDBDBD"/>
</svg>
