<svg width="23" height="24" viewBox="0 0 23 24" fill="none" xmlns="http://www.w3.org/2000/svg">
<path d="M1.38 23.0725C1.38 23.5855 1.79113 24 2.3 24H10.5225V13.1014H1.38V23.0725ZM12.4775 24H20.7C21.2089 24 21.62 23.5855 21.62 23.0725V13.1014H12.4775V24ZM22.08 6.14493H17.8365C18.2275 5.52464 18.4575 4.78841 18.4575 4C18.4575 1.7942 16.6779 0 14.49 0C13.2998 0 12.2274 0.533333 11.5 1.37391C10.7726 0.533333 9.70025 0 8.51 0C6.32212 0 4.5425 1.7942 4.5425 4C4.5425 4.78841 4.76963 5.52464 5.1635 6.14493H0.92C0.411125 6.14493 0 6.55942 0 7.07246V11.1304H10.5225V6.14493H12.4775V11.1304H23V7.07246C23 6.55942 22.5889 6.14493 22.08 6.14493ZM10.5225 6.02899H8.51C7.40025 6.02899 6.4975 5.11884 6.4975 4C6.4975 2.88116 7.40025 1.97101 8.51 1.97101C9.61975 1.97101 10.5225 2.88116 10.5225 4V6.02899ZM14.49 6.02899H12.4775V4C12.4775 2.88116 13.3802 1.97101 14.49 1.97101C15.5998 1.97101 16.5025 2.88116 16.5025 4C16.5025 5.11884 15.5998 6.02899 14.49 6.02899Z" fill="white"/>
</svg>
