<svg width="104" height="104" viewBox="0 0 104 104" fill="none" xmlns="http://www.w3.org/2000/svg">
<path d="M80.1668 84.5H23.8335L10.8335 97.5V23.8333C10.8335 16.6833 16.6835 10.8333 23.8335 10.8333H80.1668C87.3168 10.8333 93.1668 16.6833 93.1668 23.8333V71.5C93.1668 78.65 87.3168 84.5 80.1668 84.5Z" fill="#D4EDFC"/>
<path d="M52 54.1667C55.5899 54.1667 58.5 51.2565 58.5 47.6667C58.5 44.0768 55.5899 41.1667 52 41.1667C48.4101 41.1667 45.5 44.0768 45.5 47.6667C45.5 51.2565 48.4101 54.1667 52 54.1667Z" fill="#043263"/>
<path d="M73.667 54.1667C77.2568 54.1667 80.167 51.2565 80.167 47.6667C80.167 44.0768 77.2568 41.1667 73.667 41.1667C70.0771 41.1667 67.167 44.0768 67.167 47.6667C67.167 51.2565 70.0771 54.1667 73.667 54.1667Z" fill="#043263"/>
<path d="M30.3335 54.1667C33.9233 54.1667 36.8335 51.2565 36.8335 47.6667C36.8335 44.0768 33.9233 41.1667 30.3335 41.1667C26.7436 41.1667 23.8335 44.0768 23.8335 47.6667C23.8335 51.2565 26.7436 54.1667 30.3335 54.1667Z" fill="#043263"/>
</svg>
