<svg width="53" height="53" viewBox="0 0 53 53" fill="none" xmlns="http://www.w3.org/2000/svg">
<path d="M28.4894 11.0882L11.49 25.9232C11.3362 26.0573 11.2129 26.2231 11.1283 26.4093C11.0438 26.5956 11 26.7979 11 27.0026C11 27.2074 11.0438 27.4097 11.1283 27.5959C11.2129 27.7822 11.3362 27.948 11.49 28.0821L28.4894 42.9126C28.5407 42.9574 28.6036 42.9864 28.6708 42.9963C28.738 43.0061 28.8066 42.9963 28.8684 42.9681C28.9302 42.9398 28.9827 42.8943 29.0195 42.8369C29.0563 42.7795 29.0759 42.7127 29.0761 42.6444L29.0761 39.0239C29.0761 38.8183 28.9872 38.6216 28.8316 38.4831L17.6187 28.6989L42.6445 28.6989C42.84 28.6989 43 28.538 43 28.3413L43 25.6595C43 25.4628 42.84 25.3019 42.6445 25.3019L17.6187 25.3019L28.8316 15.5177C28.9872 15.3836 29.0761 15.187 29.0761 14.9769L29.0761 11.3564C29.0761 11.0525 28.7205 10.8871 28.4894 11.0882Z" fill="white"/>
</svg>
