<svg width="34" height="26" viewBox="0 0 34 26" fill="none" xmlns="http://www.w3.org/2000/svg">
<path d="M32.8852 14.5062C32.2092 13.8375 31.1551 13.8812 30.4447 14.5062L25.1512 19.125C24.5039 19.6937 23.6961 20 22.8597 20L16.0825 20C15.5783 20 15.1659 19.55 15.1659 19C15.1659 18.45 15.5783 18 16.0825 18L20.5682 18C21.4791 18 22.3269 17.3187 22.4759 16.3375C22.6649 15.0875 21.7827 14 20.6656 14L11.4994 14C9.9526 14 8.45737 14.5812 7.25432 15.6437L4.5904 18L1.41662 18C0.912478 18 0.5 18.45 0.5 19L0.500001 25C0.500001 25.55 0.912478 26 1.41662 26L21.8572 26C22.6878 26 23.4956 25.6938 24.1487 25.125L32.8107 17.5625C33.6815 16.8062 33.7502 15.3562 32.8852 14.5062Z" fill="white"/>
<path d="M21.2906 10C21.3757 10 21.4397 9.95898 21.4828 9.87478L24.8067 3.62478C24.8487 3.54167 24.9127 3.49957 24.9989 3.49957C25.084 3.49957 25.148 3.54167 25.1911 3.62478L28.5172 9.87478C28.5591 9.95898 28.6232 10 28.7094 10H30.3719C30.4138 10 30.4459 9.97949 30.468 9.93739C30.489 9.89637 30.5 9.85427 30.5 9.81218L25.1933 0.0626079C25.1502 0.021589 25.0862 0 25.0011 0C24.9149 0 24.8509 0.021589 24.8089 0.0626079L19.5 9.81218C19.5 9.85427 19.5099 9.89637 19.532 9.93739C19.553 9.97949 19.5851 10 19.6281 10H21.2906Z" fill="white"/>
</svg>
