<svg width="23" height="23" viewBox="0 0 23 23" fill="none" xmlns="http://www.w3.org/2000/svg">
<path d="M22.8906 8.72335C22.9994 8.46248 23.0279 8.17542 22.9723 7.89849C22.9168 7.62157 22.7798 7.36722 22.5787 7.16762L15.3913 0.03125L13.3587 2.04941L18.0923 6.74943H0.000166537V9.60398H21.5624C21.8466 9.60405 22.1246 9.52042 22.361 9.36367C22.5974 9.20692 22.7817 8.98409 22.8906 8.72335ZM0.109415 13.3392C0.000591184 13.6 -0.0278583 13.8871 0.0276672 14.164C0.0831927 14.4409 0.220198 14.6953 0.421348 14.8949L7.60874 22.0312L9.64134 20.0131L4.90772 15.3131H22.9998V12.4585H1.43765C1.15332 12.4583 0.875313 12.5418 0.638857 12.6986C0.4024 12.8554 0.218137 13.0783 0.109415 13.3392Z" fill="white"/>
</svg>
