<svg width="29" height="28" viewBox="0 0 29 28" fill="none" xmlns="http://www.w3.org/2000/svg">
<path fill-rule="evenodd" clip-rule="evenodd" d="M2 2H18V3.29945C18.6965 3.46956 19.3657 3.70915 20 4.01045V2V0H18H2H0V2V26V28H2H18H20V26V22.9896C19.3657 23.2909 18.6965 23.5304 18 23.7006V26H2V2Z" fill="white"/>
<path fill-rule="evenodd" clip-rule="evenodd" d="M7 14C7 9.589 10.589 6 15 6C19.411 6 23 9.589 23 14C22.9996 15.7754 22.405 17.4997 21.311 18.898L25.707 23.294L24.293 24.708L19.897 20.312C18.4988 21.4054 16.775 21.9996 15 22C10.589 22 7 18.411 7 14ZM13.3714 10.4284C15.3967 9.61837 17.8844 10.4176 19.1425 12.5144C19.4267 12.988 20.0409 13.1416 20.5145 12.8574C20.9881 12.5733 21.1416 11.959 20.8575 11.4854C19.1156 8.58231 15.6033 7.38173 12.6286 8.57147C12.1159 8.77656 11.8664 9.35852 12.0715 9.87131C12.2766 10.3841 12.8586 10.6335 13.3714 10.4284Z" fill="white"/>
</svg>
