<svg width="32" height="22" viewBox="0 0 32 22" fill="none" xmlns="http://www.w3.org/2000/svg">
<path fill-rule="evenodd" clip-rule="evenodd" d="M28.0755 0.5H0V18.0472H28.0755V0.5ZM15.9857 7.85376C16.0147 7.99928 15.9999 8.15012 15.9431 8.2872C15.8863 8.42421 15.7901 8.54131 15.6668 8.62368C15.5434 8.70604 15.3984 8.74999 15.2501 8.74995H4.00008V7.24995H13.4396L10.9698 4.7802L12.0303 3.7197L15.7803 7.4697C15.8853 7.57458 15.9568 7.70824 15.9857 7.85376ZM4.01443 11.1461C3.98546 11.0006 4.00031 10.8498 4.05709 10.7127C4.11381 10.5756 4.20995 10.4585 4.33332 10.3761C4.45669 10.2937 4.60174 10.2498 4.75008 10.2499H16.0001V11.7499H6.56059L9.03033 14.2197L7.96983 15.2802L4.21983 11.5302C4.11489 11.4253 4.0434 11.2917 4.01443 11.1461Z" fill="white"/>
<path fill-rule="evenodd" clip-rule="evenodd" d="M7.43408 19.4999V21.3867H32.0001V6.1792H30.2866V19.4999H7.43408Z" fill="white"/>
</svg>
