<svg width="40" height="40" viewBox="0 0 40 40" fill="none" xmlns="http://www.w3.org/2000/svg">
<circle cx="20" cy="20" r="20" fill="url(#paint0_linear_37_168)"/>
<g clip-path="url(#clip0_37_168)">
<path d="M11.0035 12.0315C11.0113 12.2854 11.1154 12.5269 11.2947 12.7069L16.0877 17.4999L13.5017 17.4999L13.3847 17.5069C13.0017 17.4999 12.5017 17.4999 12.5046 17.5069C12.5017 17.4999 12.4896 18.304 12.5046 18.5585C12.5195 18.8129 12.5017 19.4999 12.5046 19.4997C12.736 19.5001 13.2469 19.4996 13.5017 19.4999L18.5017 19.4999L18.6187 19.4929C19.0017 19.4999 19.5017 19.4999 19.5017 19.4999L19.5017 18.4999L19.5017 13.4999L19.4947 13.3829C19.5017 12.9999 19.5017 12.4999 19.5017 12.4999C19.5017 12.4999 18.6976 12.4877 18.4431 12.5027C18.1887 12.5176 18.0017 12.4999 17.5017 12.5027C17.5017 12.7341 17.502 13.245 17.5017 13.4999L17.5017 16.0859L12.7087 11.2929L12.6147 11.2099C12.4138 11.0544 12.1611 10.9814 11.9082 11.0055C11.6553 11.0295 11.0017 10.9999 11.0017 10.9999C11.0035 11.2929 10.9958 11.7775 11.0035 12.0315Z" fill="white"/>
<path d="M28.4982 27.4685C28.4904 27.2145 28.3863 26.973 28.207 26.7931L23.414 22.0001L26 22.0001L26.117 21.9931C26.5 22 27 22 26.9971 21.9931C27 22 27.0121 21.1959 26.9971 20.9415C26.9822 20.687 27 20 26.9971 20.0003C26.7657 19.9999 26.2548 20.0004 26 20.0001L21 20.0001L20.883 20.0071C20.5 20 20 20 20 20L20 21.0001L20 26.0001L20.007 26.1171C20 26.5 20 27 20 27C20 27 20.8041 27.0122 21.0586 26.9973C21.313 26.9823 21.5 27 22 26.9973C22 26.7658 21.9997 26.255 22 26.0001L22 23.4141L26.793 28.2071L26.887 28.2901C27.088 28.4455 27.3406 28.5186 27.5935 28.4945C27.8464 28.4704 28.5 28.5 28.5 28.5C28.4982 28.2071 28.5059 27.7224 28.4982 27.4685Z" fill="white"/>
</g>
<defs>
<linearGradient id="paint0_linear_37_168" x1="0" y1="0" x2="40" y2="40" gradientUnits="userSpaceOnUse">
<stop stop-color="#5BBEFF"/>
<stop offset="0.515625" stop-color="#5BBEFF"/>
<stop offset="0.515725" stop-color="#49A5E6"/>
<stop offset="1" stop-color="#49A5E6"/>
</linearGradient>
<clipPath id="clip0_37_168">
<rect width="24" height="24" fill="white" transform="translate(32 8) rotate(90)"/>
</clipPath>
</defs>
</svg>
