<svg width="40" height="40" viewBox="0 0 40 40" fill="none" xmlns="http://www.w3.org/2000/svg">
<circle cx="20" cy="20" r="20" fill="url(#paint0_linear_32_66)"/>
<g clip-path="url(#clip0_32_66)">
<path d="M30.1245 17.7049H28.8524V14.4263C28.8524 14.2523 28.7833 14.0856 28.6603 13.9626C28.5373 13.8396 28.3705 13.7705 28.1966 13.7705H12.4589C12.285 13.7705 12.1182 13.7014 11.9952 13.5785C11.8723 13.4555 11.8032 13.2887 11.8032 13.1148C11.8032 12.9409 11.8723 12.7741 11.9952 12.6511C12.1182 12.5281 12.285 12.459 12.4589 12.459H27.9343C28.1082 12.459 28.275 12.39 28.398 12.267C28.521 12.144 28.5901 11.9772 28.5901 11.8033C28.5901 11.6294 28.521 11.4626 28.398 11.3396C28.275 11.2167 28.1082 11.1476 27.9343 11.1476H12.4589C12.2057 11.1423 11.954 11.1871 11.7181 11.2792C11.4822 11.3712 11.2667 11.5089 11.0841 11.6843C10.9014 11.8597 10.755 12.0693 10.6534 12.3013C10.5518 12.5332 10.4968 12.7829 10.4917 13.0361V26.8066C10.4926 27.1628 10.5637 27.5153 10.701 27.844C10.8383 28.1727 11.0391 28.471 11.2919 28.722C11.5446 28.9729 11.8445 29.1716 12.1741 29.3065C12.5038 29.4414 12.8568 29.5099 13.213 29.5082H28.1966C28.3705 29.5082 28.5373 29.4391 28.6603 29.3162C28.7833 29.1932 28.8524 29.0264 28.8524 28.8525V25.5738H30.1245C30.2073 25.5801 30.2904 25.5694 30.3689 25.5423C30.4474 25.5153 30.5195 25.4726 30.5809 25.4167C30.6423 25.3609 30.6917 25.2931 30.7259 25.2175C30.7602 25.1419 30.7787 25.0601 30.7802 24.9771V18.4197C30.7824 18.2395 30.7158 18.0652 30.5939 17.9324C30.4721 17.7996 30.3042 17.7183 30.1245 17.7049ZM29.5081 24.2623H23.8819C23.2098 24.2384 22.5748 23.9487 22.1162 23.4569C21.6576 22.9651 21.4129 22.3114 21.436 21.6394C21.4129 20.9673 21.6576 20.3136 22.1162 19.8218C22.5748 19.33 23.2098 19.0403 23.8819 19.0164H29.5081V24.2623Z" fill="white"/>
<path d="M24.2885 22.5705C24.8318 22.5705 25.2721 22.1301 25.2721 21.5869C25.2721 21.0436 24.8318 20.6033 24.2885 20.6033C23.7453 20.6033 23.3049 21.0436 23.3049 21.5869C23.3049 22.1301 23.7453 22.5705 24.2885 22.5705Z" fill="white"/>
</g>
<defs>
<linearGradient id="paint0_linear_32_66" x1="0" y1="0" x2="40" y2="40" gradientUnits="userSpaceOnUse">
<stop stop-color="#5BBEFF"/>
<stop offset="0.515625" stop-color="#5BBEFF"/>
<stop offset="0.515725" stop-color="#49A5E6"/>
<stop offset="1" stop-color="#49A5E6"/>
</linearGradient>
<clipPath id="clip0_32_66">
<rect width="23.6066" height="23.6066" fill="white" transform="translate(8.52466 8.5246)"/>
</clipPath>
</defs>
</svg>
